# xmcd CD database file
#
# Track frame offsets:
#	150
#	17595
#	38045
#	54950
#	75690
#	92617
#	113510
#	138017
#	152977
#	171737
#
# Disc length: 2415 seconds
#
# Revision: 2
# Processed by: cddbd v1.4PL0 Copyright (c) Steve Scherf et al.
# Submitted via: CDex 1.40Release
#
DISCID=71096d0a
DTITLE=Muddy Waters - King Bee
DYEAR=1977
DGENRE=Blues
TTITLE0=I'm A King Bee
TTITLE1=Too Young To Know
TTITLE2=Mean Old Frisco Blues
TTITLE3=Forever Lonely
TTITLE4=I Feel Like Going Home
TTITLE5=Champagne and Reefer
TTITLE6=Sad Sad Day
TTITLE7=(My Eyes) Keep Me In Trouble
TTITLE8=Deep Down In Florida #2
TTITLE9=No Escape From The Blues
EXTD=YEAR: 1977 ID3G: 0
EXTT0=
EXTT1=
EXTT2=
EXTT3=
EXTT4=
EXTT5=
EXTT6=
EXTT7=
EXTT8=
EXTT9=
PLAYORDER=
